<?xml version="1.0" encoding="utf-8"?>
<!-- Generator: Adobe Illustrator 23.0.4, SVG Export Plug-In . SVG Version: 6.00 Build 0)  -->
<svg version="1.1" baseProfile="basic" id="Livello_1"
	 xmlns="http://www.w3.org/2000/svg" xmlns:xlink="http://www.w3.org/1999/xlink" x="0px" y="0px" viewBox="0 0 1450 816"
	 xml:space="preserve">
<style type="text/css">
	.st0{fill:#20272F;}
	.st1{fill:#293441;}
</style>
<g>
	<g>
		<rect x="-5" y="-5" class="st0" width="1460.1" height="828"/>
	</g>
</g>
<g>
	<path class="st1" d="M211.7,580c-3.6,6.2-6.3,12.8-7.8,19.8c-7.3-2.2-14.5-4.9-21.5-8.1c-3.2-1.5-6-0.2-7.3,3
		c-2.6,6.4-4.9,12.8-6.8,19.4c-5.5-2.8-10.9-5.8-16.1-9.1c-2.9-1.8-6.3,0.1-7.3,3c-2.6,7.7-5.3,15.4-7.9,23.1
		c-2.1,6.1,7.6,8.7,9.6,2.7c1.9-5.6,3.8-11.3,5.8-16.9c5.4,3.2,10.9,6.1,16.6,8.7c2.9,1.3,6.5,0.4,7.3-3c1.8-6.8,3.9-13.4,6.4-19.9
		c7.8,3.3,15.7,6.1,23.9,8.3c2.4,0.6,5.8-0.8,6.2-3.5c1.1-8,3.6-15.4,7.7-22.4C223.6,579.5,214.9,574.4,211.7,580z"/>
	<path class="st1" d="M1151.9,220.8c-1.9-8.9-3.8-17.7-5.7-26.6c-0.6-2.7-3.6-4.1-6.2-3.5c-6.9,1.7-13.5,4.5-19.5,8.2
		c-3.5-6.8-6.7-13.9-9.3-21.1c-0.8-2.3-3.5-4.6-6.2-3.5c-6.7,2.7-13.3,5.7-19.7,9.1c-1.9-5.9-3.5-11.9-4.8-18
		c-0.7-3.4-4.6-4.3-7.3-3c-7.3,3.5-14.7,7-22,10.5c-5.8,2.8-0.7,11.4,5,8.6c5.3-2.6,10.7-5.1,16-7.7c1.5,6.1,3.3,12.1,5.4,18.1
		c1.1,3,4.4,4.7,7.3,3c6-3.4,12.2-6.6,18.6-9.3c3.1,7.9,6.7,15.6,10.8,23c1.2,2.2,4.7,3.4,6.8,1.8c5.1-3.8,10.5-6.6,16.3-8.6
		c1.5,7.2,3.1,14.4,4.6,21.6C1143.6,229.7,1153.3,227,1151.9,220.8z"/>
	<path class="st1" d="M1068.4,758.3c-6.9-5.9-13.8-11.8-20.7-17.7c-1.9-1.6-5.3-2.2-7.1,0c-4.6,5.8-8.3,12.1-10.9,18.9
		c-7.1-3.4-14.1-7.2-20.7-11.5c-2.3-1.5-5.5-0.5-6.8,1.8c-3.6,6.1-6.9,12.3-9.8,18.8c-4.9-3.4-9.7-7.1-14.2-11c-2.3-2-6.3-2.1-7.9,1
		c-3.7,7.2-7.4,14.5-11.1,21.7c-2.9,5.7,5.7,10.8,8.6,5c2.8-5.5,5.6-11,8.4-16.4c5.1,4.1,10.3,7.9,15.8,11.4
		c2.1,1.3,5.8,0.6,6.8-1.8c2.8-6.6,6-13,9.5-19.2c7.1,4.3,14.4,8,21.9,11.4c2.9,1.3,6.4,0.4,7.3-3c1.7-5.8,4.2-11.3,7.5-16.2
		c5.4,4.7,10.9,9.3,16.3,14C1066.2,769.6,1073.3,762.5,1068.4,758.3z"/>
	<path class="st1" d="M452.4,580.3c-8.4-9.1-16.9-18.1-25.3-27.2c-2.2-2.4-6.2-1.6-7.9,1c-6.9,11.3-11.7,23.7-14.2,36.7
		c-0.7,1.1-0.9,2.4-0.6,3.6c-0.1,0.5-0.1,0.9-0.2,1.4c-0.9,6.3,8.8,9,9.6,2.7c0-0.3,0.1-0.6,0.1-0.9c12-3.1,24.1-6.1,36.1-9
		C454,587.7,454.8,582.9,452.4,580.3z M424.5,565c4.9,5.3,9.9,10.6,14.8,15.9c-7.7,1.9-15.4,3.8-23.1,5.8
		C418.2,579.2,420.9,571.9,424.5,565z"/>
	<path class="st1" d="M1389.5,764.1c-5.1-19.3-10.2-38.6-15.4-57.9c-0.8-3.1-4.6-4.6-7.3-3c-18.5,10.9-34.7,25-48,41.7
		c-1.4,0.7-2.3,2-2.7,3.5c-0.8,1.1-1.7,2.2-2.5,3.3c-3.8,5.2,4.9,10.2,8.6,5c0.4-0.5,0.8-1.1,1.2-1.6c20,4.7,40,9.8,59.9,15.1
		C1387,771.2,1390.5,767.8,1389.5,764.1z M1366.2,715.3c3.8,14.4,7.6,28.7,11.4,43.1c-15.7-4.1-31.5-8.1-47.3-11.9
		C1340.6,734.4,1352.8,723.9,1366.2,715.3z"/>
	<path class="st1" d="M175.7,315.9c-6.1-14.4-12.3-28.9-18.4-43.3c-1.4-3.3-5.7-2.8-7.9-1c-12.9,10.3-23.8,22.8-32.1,37
		c-1.4,0.7-2.1,2.2-2.2,3.8c-0.4,0.8-0.8,1.5-1.2,2.3c-3,5.7,5.6,10.7,8.6,5c0.2-0.4,0.5-0.9,0.7-1.3c16.1,1.5,32.1,3.1,48.1,5
		C175.6,323.9,177,318.9,175.7,315.9z M151.1,283.2c4.1,9.7,8.3,19.5,12.4,29.2c-11.5-1.3-23-2.5-34.6-3.6
		C135.1,299.4,142.6,290.8,151.1,283.2z"/>
	<path class="st1" d="M1251.8,543.4c-0.6,0.1-1.2,0.2-1.7,0.4c-5.2-1.4-10.7-0.1-14.2,4.5c-3.9,5.1-5.4,12.9-5.7,19.2
		c-0.7,12.8,7.6,24.4,21.1,24.4c13.2,0,23.1-11.7,23.5-24.4C1275.1,555,1264.8,542.3,1251.8,543.4z M1254,581.6
		c-6.9,1.5-12.8-3-13.8-9.9c-0.5-3.7,0.9-21.3,7.6-18.3c1.6,0.7,3.1,0.6,4.3,0C1267.8,552.5,1268.6,578.5,1254,581.6z"/>
	<path class="st1" d="M870,101c-0.8-13.7-12.3-23.6-24.6-27.6c-3.4-1.1-5.7,1.4-6.1,4.1c-13.5-0.2-21.9,15.6-19.7,27.7
		c2.6,14.2,16.8,22.5,30.6,21C862.6,124.9,870.7,113,870,101z M851.9,115.7c-7.9,3-18.5-1.7-21.6-9.4c-3-7.5,1.3-19.8,10.9-18.7
		c2.7,0.3,4.3-1.3,4.7-3.4c6.3,2.8,11.9,7.6,13.8,14.4C861.3,105,858.4,113.3,851.9,115.7z"/>
	<path class="st1" d="M1384.8,144.7c-10.2-14.7-29.6-29.6-48.4-23.5c-2.7,0.9-3.7,3.2-3.4,5.4c-3.5,2.2-6.3,5.4-8.7,9.1
		c-4.6,7-8.5,15.2-9.2,23.6c-1.3,16.2,10.9,30.2,25.4,35.8c14.3,5.5,31.6,2.6,41.8-9.3C1392.4,174.1,1393.8,157.6,1384.8,144.7z
		 M1365,186.2c-13.3,5-29.7-1.3-36.8-13.4c-4.1-6.9-3.8-14.4-0.8-21.7c2.4-5.7,7.2-16.9,14.5-17.2c2.7-0.1,4.2-1.9,4.7-4
		c5.8,0.4,11.3,3.1,16.2,6.8c6,4.5,12.2,10.2,15.7,17C1384.8,166,1377.7,181.4,1365,186.2z"/>
	<g>
		<path class="st1" d="M216.9,114.9c24.6,7.2,48.8,15.7,72.5,25.4c5.9,2.5,8.5-7.2,2.7-9.6c-23.7-9.8-47.9-18.2-72.5-25.4
			C213.4,103.5,210.7,113.1,216.9,114.9L216.9,114.9z"/>
	</g>
	<g>
		<path class="st1" d="M587,460.9c24.6,7.2,48.8,15.7,72.5,25.4c5.9,2.5,8.5-7.2,2.7-9.6c-23.7-9.8-47.9-18.2-72.5-25.4
			C583.4,449.4,580.8,459.1,587,460.9L587,460.9z"/>
	</g>
	<path class="st1" d="M578.1,279.6c-13.5-17-27-34-40.5-51c-2-2.5-6.4-1.6-7.9,1c-7.7,13.7-15.2,27.4-22.6,41.2
		c-5.9,10.9-13.2,22.3-15.3,34.7c-1.3,0.4-2.6,0.9-3.9,1.3c-6.1,2-3.5,11.7,2.7,9.6c1-0.3,2-0.7,2.9-1c2.5,1.4,6.4,0.6,7.5-2.5
		c24.9-8.4,49.9-16.7,74.8-25.1C579.8,286.7,580.5,282.6,578.1,279.6z M517.7,272.6c5.7-10.5,11.4-21,17.2-31.4
		c10.5,13.2,20.9,26.4,31.4,39.5c-21.1,7.1-42.2,14.2-63.3,21.2C506,291.5,512.8,281.6,517.7,272.6z"/>
	<path class="st1" d="M950.4,457.5c-8.7-9.2-17.3-18.3-26-27.5c-2.1-2.2-6.5-1.9-7.9,1c-10.2,21.4-17.2,44-20.5,67.4
		c0,0-0.1,0-0.1,0c-5.8,2.5-3.3,12.1,2.7,9.6c11.2-4.7,22.4-9.4,33.6-14.1c5.4-2.3,10.9-4.6,16.3-6.9c4.3-1.8,9.8-3.2,12.9-7
		C968.1,471.8,955.5,462.8,950.4,457.5z M949.4,476c-14.2,6.1-28.4,12-42.6,17.9c3.1-17.8,8.3-35.1,15.5-51.6
		c5.2,5.5,10.4,10.9,15.5,16.4c3.2,3.4,6.4,6.7,9.6,10.1c0.9,0.9,4.7,3.9,5.4,5.4c-0.2,0.1-0.4,0.3-0.6,0.5
		C951.2,475.2,950.3,475.6,949.4,476z"/>
	<path class="st1" d="M92.5,746.7c-8.7-9.2-17.3-18.3-26-27.5c-2.1-2.2-6.5-1.9-7.9,1c-10.2,21.4-17.2,44-20.5,67.4c0,0-0.1,0-0.1,0
		c-5.8,2.5-3.3,12.1,2.7,9.6c11.2-4.7,22.4-9.4,33.6-14.1c5.4-2.3,10.9-4.6,16.3-6.9c4.3-1.8,9.8-3.2,12.9-7
		C110.2,761,97.6,752.1,92.5,746.7z M91.5,765.2c-14.2,6.1-28.4,12-42.6,17.9c3.1-17.8,8.3-35.1,15.5-51.6
		c5.2,5.5,10.4,10.9,15.5,16.4c3.2,3.4,6.4,6.7,9.6,10.1c0.9,0.9,4.7,3.9,5.4,5.4c-0.2,0.1-0.4,0.3-0.6,0.5
		C93.3,764.4,92.4,764.8,91.5,765.2z"/>
	<path class="st1" d="M742.9,686.2c-4.2-5.3-10.7-7.2-16.9-5.8c-0.9-4.2-8.1-5.2-9.8-0.1c-2.9,8.6-3.3,18.7,3.5,25.7
		c5.9,6,15,6,21.2,0.4C746.6,701.1,747.8,692.4,742.9,686.2z M732.7,700c-3.3,1.7-6.3-0.6-7.7-3.7c-0.9-1.9-1.1-4-0.9-6.1
		c1.1,0.4,2.5,0.4,3.8-0.2C734,687.4,739.4,696.6,732.7,700z"/>
	<path class="st1" d="M70.5,45.1c-4.2-5.3-10.7-7.2-16.9-5.8c-0.9-4.2-8.1-5.2-9.8-0.1c-2.9,8.6-3.3,18.7,3.5,25.7
		c5.9,6,15,6,21.2,0.4C74.2,60,75.4,51.3,70.5,45.1z M60.3,58.9c-3.3,1.7-6.3-0.6-7.7-3.7c-0.9-1.9-1.1-4-0.9-6.1
		c1.1,0.4,2.5,0.4,3.8-0.2C61.7,46.3,67.1,55.4,60.3,58.9z"/>
	<path class="st1" d="M513.4,65.1c-1.1-1.7-2.8-2.4-4.4-2.3c-5.9-2-12.6,0.2-16.1,5.6c-4.2,6.6-2,15.4,3.4,20.6
		c5.8,5.5,15.4,6.3,20.2-0.9C521.6,80.4,517.8,72,513.4,65.1z M503.4,81.9c-1.9-1.7-3.6-5-2.4-7.6c0.9-1.9,3.3-3,5.2-1.9
		c0,0,0.1,0,0.1,0.1c1.4,2.2,2.8,4.7,2.7,7.3C508.9,83.6,506.2,84.3,503.4,81.9z"/>
	<path class="st1" d="M1402.3,444.9c-1.1-1.7-2.8-2.4-4.4-2.3c-5.9-2-12.6,0.2-16.1,5.6c-4.2,6.6-2,15.4,3.4,20.6
		c5.8,5.5,15.4,6.3,20.2-0.9C1410.5,460.2,1406.8,451.8,1402.3,444.9z M1392.3,461.7c-1.9-1.7-3.6-5-2.4-7.6c0.9-1.9,3.3-3,5.2-1.9
		c0,0,0.1,0,0.1,0.1c1.4,2.2,2.8,4.7,2.7,7.3C1397.9,463.3,1395.1,464.1,1392.3,461.7z"/>
	<g>
		<path class="st1" d="M384.3,787.1c18,0,35.9,0,53.9,0c6.4,0,6.4-10,0-10c-18,0-35.9,0-53.9,0C377.9,777.1,377.9,787.1,384.3,787.1
			L384.3,787.1z"/>
	</g>
	<g>
		<path class="st1" d="M1047.3,606.4c10.5,3.7,20.2,9.2,28.7,16.4c4.9,4.1,12-2.9,7.1-7.1c-9.9-8.4-20.9-14.7-33.1-18.9
			C1043.9,594.7,1041.3,604.3,1047.3,606.4L1047.3,606.4z"/>
	</g>
	<g>
		<path class="st1" d="M854.3,306.2c4.3-10.3,10.5-19.5,18.2-27.5c4.4-4.7-2.6-11.7-7.1-7.1c-8.9,9.4-15.8,20-20.8,32
			C842.2,309.5,851.9,312.1,854.3,306.2L854.3,306.2z"/>
	</g>
	<g>
		<path class="st1" d="M1249.2,389.3c20.7-3,41.1-8.1,60.8-15.1c6-2.2,3.4-11.8-2.7-9.6c-19.7,7.1-40,12.1-60.8,15.1
			C1240.2,380.6,1242.9,390.2,1249.2,389.3L1249.2,389.3z"/>
	</g>
</g>
</svg>
