<svg xmlns="http://www.w3.org/2000/svg" id="Livello_1" data-name="Livello 1" viewBox="0 0 45.6 22.2"><defs><style>.cls-1{fill:#ffda03}</style></defs><title>mondora-mini-logo</title><path d="M3.9,16.1v-.2A3.55721,3.55721,0,0,1,4.4,14a3.40424,3.40424,0,0,1,3-1.6,3.42453,3.42453,0,0,1,1.8.4,3.41562,3.41562,0,0,1,1.7,3.1v.2a3.80691,3.80691,0,0,1-.4,1.9,3.29,3.29,0,0,1-3,1.6C5.1,19.5,3.9,18.3,3.9,16.1Z" class="cls-1" transform="translate(-3.9 -11.3)"/><path d="M3.9,30v-.2a3.55721,3.55721,0,0,1,.5-1.9,3.40424,3.40424,0,0,1,3-1.6,3.42453,3.42453,0,0,1,1.8.4,3.41562,3.41562,0,0,1,1.7,3.1V30a3.80691,3.80691,0,0,1-.4,1.9,3.29,3.29,0,0,1-3,1.6C5.1,33.5,3.9,32.2,3.9,30Z" class="cls-1" transform="translate(-3.9 -11.3)"/><path d="M16.5,33.5V11.8h4.1l.5,4A7.08063,7.08063,0,0,1,28,11.3c3.7,0,5.9,1.7,6.8,4.5a6.99325,6.99325,0,0,1,7-4.5c5.1,0,7.7,3.2,7.7,8.6V33.5H44.6V21.3c0-3.4-1.2-5.7-4.5-5.7-3.2,0-4.5,2.3-4.5,5.6V33.5H30.7V21.1a8.62743,8.62743,0,0,0-.4-2.8c-.5-1.7-1.7-2.7-4-2.7-3.2,0-4.8,2.6-4.8,6.3V33.5Z" transform="translate(-3.9 -11.3)"/></svg>