<svg xmlns="http://www.w3.org/2000/svg" xmlns:xlink="http://www.w3.org/1999/xlink" id="Livello_1" x="0" y="0" baseProfile="basic" version="1.1" viewBox="0 0 200 38.2" xml:space="preserve"><style type="text/css">.st0{fill:#ffda03}</style><g><path d="M3.9,16.1v-0.2c0-0.8,0.2-1.4,0.5-1.9c0.6-1,1.7-1.6,3-1.6c0.7,0,1.3,0.1,1.8,0.4c1,0.6,1.7,1.6,1.7,3.1v0.2 c0,0.7-0.1,1.4-0.4,1.9c-0.6,1-1.6,1.6-3,1.6C5.1,19.5,3.9,18.3,3.9,16.1z" class="st0"/><path d="M3.9,30v-0.2c0-0.8,0.2-1.4,0.5-1.9c0.6-1,1.7-1.6,3-1.6c0.7,0,1.3,0.1,1.8,0.4c1,0.6,1.7,1.6,1.7,3.1V30 c0,0.7-0.1,1.4-0.4,1.9c-0.6,1-1.6,1.6-3,1.6C5.1,33.5,3.9,32.2,3.9,30z" class="st0"/><path d="M182.1,34.7c-4.9,0-7.4-2.4-7.4-6.1c0-2.5,1.1-4.4,3-5.6c0.6-0.4,1.3-0.8,1.9-1c1.3-0.5,3-0.8,5.9-1.2 c4.1-0.5,5.7-1.1,5.7-2.9c0-1.9-1.2-3.1-4.8-3.1c-3.8,0-5.5,1.6-5.6,4.6h-5.3c0.4-5.2,4.2-8.6,10.7-8.6c2.5,0,4.4,0.3,5.9,1 c3,1.3,4.2,3.7,4.2,7v15.4h-4.2l-0.6-4.6C189.8,32.5,186.8,34.7,182.1,34.7z M187.7,29.6c2.2-1.4,3.4-3.7,3.4-5.9v-1.2 c-0.9,0.7-2.5,1.1-4.6,1.5c-2.8,0.4-3.9,0.8-4.9,1.4c-0.9,0.6-1.3,1.4-1.3,2.4c0,1.9,1.2,2.8,3.6,2.8 C185.4,30.7,186.6,30.3,187.7,29.6z"/><path d="M159.2,11.3h4.2l0.7,5.3c0.9-3.8,3.2-5.5,7.6-5.5h1.5v5.3h-2.3c-1.8,0-3.2,0.2-4.1,0.7c-1.9,0.9-2.5,2.9-2.5,6.5v10.5h-5.1 V11.3z"/><path d="M132.3,23.1v-0.6c0-2.5,0.5-4.7,1.5-6.5c2-3.5,5.5-5.3,10-5.3c2.3,0,4.2,0.4,5.9,1.4c3.5,1.9,5.5,5.4,5.5,10.4v0.6 c0,2.5-0.5,4.6-1.4,6.3c-2,3.4-5.4,5.3-10.1,5.3C136.4,34.7,132.3,30.6,132.3,23.1z M150,23.1v-0.5c0-4.7-2.4-7.4-6.2-7.4 c-3.7,0-6.2,2.5-6.2,7.4v0.5c0,4.5,2.3,7,6.2,7C147.7,30.1,150,27.6,150,23.1z"/><path d="M115.8,34.5c-5.8,0-9.7-4.1-9.7-11.8v-0.6c0-2.5,0.4-4.6,1.3-6.3c1.7-3.4,4.7-5.1,8.5-5.1c3.8,0,6.3,1.6,7.6,4.4V3.6h5 v30.5h-4.3l-0.6-4.7C122.4,32.4,119.8,34.5,115.8,34.5z M123.6,22.7v-0.4c0-4.4-2.3-7.2-6.1-7.2c-3.9,0-6.1,2.7-6.1,7.2v0.4 c0,4.9,2.5,7.3,5.9,7.3C121.2,30.1,123.6,27.3,123.6,22.7z"/><path d="M81.3,34.1V11.3h4.4l0.5,4.6c1.2-3.1,3.8-5.1,7.7-5.1c5.5,0,8.4,3.6,8.4,9.3v14h-5.2V21.3c0-3.7-1.2-6.1-4.9-6.1 c-3.9,0-5.7,2.7-5.7,6.9v11.9H81.3z"/><path d="M54.4,23.1v-0.6c0-2.5,0.5-4.7,1.5-6.5c2-3.5,5.5-5.3,10-5.3c2.3,0,4.2,0.4,5.9,1.4c3.5,1.9,5.5,5.4,5.5,10.4v0.6 c0,2.5-0.5,4.6-1.4,6.3c-2,3.4-5.4,5.3-10.1,5.3C58.5,34.7,54.4,30.6,54.4,23.1z M72.1,23.1v-0.5c0-4.7-2.4-7.4-6.2-7.4 c-3.7,0-6.2,2.5-6.2,7.4v0.5c0,4.5,2.3,7,6.2,7C69.8,30.1,72.1,27.6,72.1,23.1z"/><path d="M16.5,33.5V11.8h4.1l0.5,4c1.2-2.7,3.4-4.5,6.9-4.5c3.7,0,5.9,1.7,6.8,4.5c1.1-2.8,3.5-4.5,7-4.5c5.1,0,7.7,3.2,7.7,8.6 v13.6h-4.9V21.3c0-3.4-1.2-5.7-4.5-5.7c-3.2,0-4.5,2.3-4.5,5.6v12.3h-4.9V21.1c0-1-0.1-1.9-0.4-2.8c-0.5-1.7-1.7-2.7-4-2.7 c-3.2,0-4.8,2.6-4.8,6.3v11.6H16.5z"/></g></svg>