<svg xmlns="http://www.w3.org/2000/svg" xmlns:xlink="http://www.w3.org/1999/xlink" id="Livello_1" baseProfile="basic" version="1.1" xml:space="preserve"><style type="text/css">.st0{fill:#ffda03}.st1{fill:#fff}</style><g><path d="M3.9,16.1v-0.2c0-0.8,0.2-1.4,0.5-1.9c0.6-1,1.7-1.6,3-1.6c0.7,0,1.3,0.1,1.8,0.4c1,0.6,1.7,1.6,1.7,3.1v0.2 c0,0.7-0.1,1.4-0.4,1.9c-0.6,1-1.6,1.6-3,1.6C5.1,19.5,3.9,18.3,3.9,16.1z" class="st0"/><path d="M3.9,30v-0.2c0-0.8,0.2-1.4,0.5-1.9c0.6-1,1.7-1.6,3-1.6c0.7,0,1.3,0.1,1.8,0.4c1,0.6,1.7,1.6,1.7,3.1V30 c0,0.7-0.1,1.4-0.4,1.9c-0.6,1-1.6,1.6-3,1.6C5.1,33.5,3.9,32.2,3.9,30z" class="st0"/><path d="M16.5,33.5V11.8h4.1l0.5,4c1.2-2.7,3.4-4.5,6.9-4.5c3.7,0,5.9,1.7,6.8,4.5c1.1-2.8,3.5-4.5,7-4.5c5.1,0,7.7,3.2,7.7,8.6 v13.6h-4.9V21.3c0-3.4-1.2-5.7-4.5-5.7c-3.2,0-4.5,2.3-4.5,5.6v12.3h-4.9V21.1c0-1-0.1-1.9-0.4-2.8c-0.5-1.7-1.7-2.7-4-2.7 c-3.2,0-4.8,2.6-4.8,6.3v11.6H16.5z" class="st1"/></g></svg>