<?xml version="1.0" encoding="utf-8"?>
<!-- Generator: Adobe Illustrator 23.0.4, SVG Export Plug-In . SVG Version: 6.00 Build 0)  -->
<svg version="1.1" baseProfile="basic" id="Livello_1"
	 xmlns="http://www.w3.org/2000/svg" xmlns:xlink="http://www.w3.org/1999/xlink" x="0px" y="0px" viewBox="0 0 80 80"
	 xml:space="preserve">
<style type="text/css">
	.st0{fill:#FBDA48;}
</style>
<g>
	<path class="st0" d="M62.2,29.2c0-0.4-0.1-0.9-0.1-1.3c-0.1-0.9-0.1-1.8-0.2-2.7c-0.1-2.1-0.1-4.1-0.2-6.2c-0.1-2.5-0.1-5-0.2-7.5
		c0-0.9-0.2-1.7-0.4-2.4c-0.9-3.2-2.3-4.4-5.6-4.6c-0.3,0-0.6-0.1-0.9-0.2c-0.2,0-0.4-0.1-0.5-0.1l-6.3,0l-0.1,0
		c-0.8,0.1-1.5,0.1-2.3,0.2c-1.7,0.1-3.4,0.3-5,0.4C38.2,4.9,36.1,5,34,5.1c-1.9,0.1-3.9,0.2-5.8,0.3c-3.5,0.2-6.9,3.3-7.4,6.6
		l-0.3,2c-1.2,7.7-2.4,15.6-2.2,23.7c0.1,3.5-0.1,7-0.3,10.5c-0.1,3.1-0.3,6.4-0.3,9.6c0,3.9,0.7,7.7,1.4,10.7
		c0.7,3.1,3.1,5,5.5,6.6c0.9,0.6,2,0.7,2.6,0.7c0.1,0,0.3,0,0.4,0c2.6-0.2,5.1-0.3,7.7-0.5c2.6-0.2,5.2-0.4,7.7-0.5
		c0.4,0,0.9,0.1,1.4,0.2c0.2,0.1,0.4,0.1,0.7,0.1c0.2,0.1,0.5,0.2,0.8,0.2c0.4,0,0.8,0,1.2-0.1c2.6-0.1,5.2-0.3,7.6-1.8
		c2.5-1.6,4.1-4,4.7-7.1c0.3-1.5,0.4-3.1,0.5-4.6l0.1-0.8c0.6-7.3,1.1-14.6,1.6-22l0.2-3.2c0.1-1.3,0.2-2.6,0.3-3.9l0.1-1.7
		L62.2,29.2z M57,37.8c-0.3,6-0.6,12.2-0.9,18.5c-0.2,3.3-0.7,6.5-1.4,9.5c-0.5,2-1.5,3.1-3.2,3.5c-0.5,0.1-1,0.3-1.4,0.4
		c-0.5,0.2-1,0.3-1.4,0.4c-0.2,0-0.4,0.1-0.7,0.1c-0.7,0.2-0.7,0.2-0.9-0.1c-0.5-0.8-1.5-0.7-2.2-0.7l-0.1,0
		c-1.6,0.1-3.2,0.3-4.7,0.4c-3.8,0.3-7.7,0.7-11.5,0.9c-0.7,0-1.8-0.3-2.6-0.9c-1.4-1-2.3-2.5-2.6-4.7c-0.9-6.1-1-12.6-0.4-19.7
		c0.2-2.4,0.2-5,0.1-8c-0.2-4.7,0.2-9.7,1.2-15.7c0.3-1.7,0.5-3.4,0.6-5.1c0.1-1.2,0.2-2.3,0.4-3.5c0.3-1.9,0.4-2.1,2.2-2.4
		c3.8-0.6,7.3-1.1,10.7-1.2c4.8-0.2,9.7-0.2,14.4-0.2l2.4,0c0,0,0,0,0,0c1.1,0,1.4,0.2,1.5,1.6c0.2,4.6,0.3,9.2,0.5,14.1l0.2,5.9
		C57.2,33.2,57.1,35.5,57,37.8z"/>
	<path class="st0" d="M51.5,14.8c-7.7,0.2-15.4,0.7-23.1,1.1c-1.1,0.1-1.7,0.8-1.7,1.8c-0.2,4.1-0.5,8.3-0.5,12.4
		c0,3.1,0.3,6.3,0.5,9.4c0.1,1.4,0.7,2.2,2,2.3c1.9,0.2,3.9,0.5,5.9,0.3c4.7-0.5,9.4-1.2,14.1-1.8c1.8-0.2,3.6-1.2,5.4,0.2
		c0.1,0.1,1-0.6,1.1-1c0.4-2.1,0.7-4.1,0.8-6.2c0.1-3.4,0-6.9,0-10.4c0.1,0,0.2,0,0.3,0c-0.1-1.6-0.1-3.2-0.4-4.8
		C55.1,15,55,14.7,51.5,14.8z M53,19.9c-1-1-1.7-0.7-2.4,0c-0.6,0.6-1.2,1.2-1.7,1.9c-2.1,3-4.2,6-6.3,8.9c-0.2,0.3-0.5,0.5-0.5,0.8
		c0,0.6-0.1,1.4,0.2,1.8c0.6,0.7,1.2,0.1,1.7-0.5c0.9-1.3,1.9-2.7,2.8-4.1c0.6-0.9,1.3-1.8,2-2.7c0.1,0,0.2,0.1,0.2,0.1
		c-0.7,1.4-1.5,2.8-2.2,4.2c-0.8,1.6-1.7,3.1-2.5,4.7c-0.4,0.7-0.9,1.6,0.2,2.1c1,0.6,1.5-0.2,1.8-1c0-0.1,0.1-0.1,0.4-0.2
		c0.1,0.8,0.1,1.4,0.2,2.4c-3.1,0.5-6.2,1-9.2,1.4c-2.2,0.2-4.5,0.2-6.7,0.2c-1.2,0-1.7-0.4-1.8-1.8c-0.5-6.8-0.6-13.6-0.1-20.4
		c8-0.3,16-0.5,24.1-0.8C53,18.1,53,18.9,53,19.9z"/>
	<path class="st0" d="M41.7,60.8c-0.3-1.2-1-1.5-2.1-1.2c-0.4,0.1-0.9,0.3-1.3,0.4c-3.8,1.1-3.9,1.3-3.5,5.3
		c0.1,1.1,0.6,1.6,1.8,1.6c1.4-0.2,2.9-0.4,4.3-0.7c1.3-0.3,1.8-1.2,1.6-2.6C42.2,62.7,41.9,61.8,41.7,60.8z M37.4,64.4
		c0-0.8-0.7-1.8,0.6-2.2c1.4-0.4,1.9,0.2,2,1.7C39.1,64.1,38.3,64.3,37.4,64.4z"/>
	<path class="st0" d="M48.1,60.3c-2.6,0.8-2.6,0.8-2.5,3.5c0,0.4,0,0.7,0,1.1c0,1.8,0.5,2.2,2.2,2c1.1-0.1,2.2-0.3,3.2-0.5
		c1.9-0.4,2.5-1.2,2.1-3.1C52.3,59,52.2,59,48.1,60.3z M48.1,64.4c0-1.1-0.5-2,1.1-2.3c1.5-0.2,1.5,0.7,1.7,1.8
		C49.9,64.1,49.1,64.3,48.1,64.4z"/>
	<path class="st0" d="M28,60.3c-2.6,0.8-2.6,0.8-2.5,3.5c0,0.3,0,0.6,0,1c0,1.9,0.6,2.4,2.4,2.1c1-0.1,2.1-0.3,3.1-0.5
		c1.9-0.4,2.5-1.2,2.1-3.1C32.2,59,32.2,59,28,60.3z M28.1,64.4c0-0.9-0.6-1.9,0.8-2.2c1.4-0.3,1.8,0.4,1.9,1.8
		C29.8,64.1,29,64.3,28.1,64.4z"/>
	<path class="st0" d="M28.5,56.3c0.9,0,1.7-0.1,2.6-0.1c1.4-0.1,1.8-0.5,1.6-1.9c-0.1-1.2-0.2-2.4-0.4-3.5c-0.1-0.4-0.8-0.8-1.2-0.9
		c-1.4-0.1-2.9,0.1-4.3,0c-1.2,0-1.8,0.4-2,1.5c-0.1,0.4,0,0.9-0.1,1.4C24.5,56.5,24.4,56.6,28.5,56.3z M30.5,51.7
		c0,0.7,0,1.3,0,2.1c-0.6,0-1.1,0-1.7,0c-0.5,0-1,0-1.4,0C26.7,51.9,28.1,51.2,30.5,51.7z"/>
	<path class="st0" d="M41.9,49.9c-1.5-0.1-2.9,0-4.4,0c-1.1,0-1.8,0.4-1.9,1.5c-0.1,1.1-0.1,2.3-0.2,3.4c0,1.1,0.5,1.6,1.6,1.6
		c0.8,0,1.5,0,2.3,0c0,0,0-0.1,0-0.1c0.9,0,1.8-0.1,2.7-0.2c0.8-0.1,1.6-0.4,1.5-1.4c-0.1-1.4-0.2-2.7-0.5-4.1
		C43,50.4,42.3,49.9,41.9,49.9z M41.2,51.7c0,0.6,0,1.2,0,1.9c-1.1,0-2.1,0-3.1,0C37.7,51.7,38.8,51.1,41.2,51.7z"/>
	<path class="st0" d="M53.8,50.8c-0.1-0.4-0.8-0.8-1.2-0.9c-1.4-0.1-2.9,0.1-4.3,0c-1.2,0-1.9,0.5-2,1.7c0,0.5,0,0.9,0,1.4
		c-0.4,3.8-0.1,3.5,3.7,3.3c0.9-0.1,1.8-0.1,2.7-0.2c1-0.1,1.7-0.5,1.5-1.8C54.1,53.2,54.1,52,53.8,50.8z M52,51.7c0,0.7,0,1.3,0,2
		c-1.1,0-2.1,0-3.1,0C48.3,52,49.3,51.1,52,51.7z"/>
</g>
</svg>
