<?xml version="1.0" encoding="utf-8"?>
<!-- Generator: Adobe Illustrator 23.0.4, SVG Export Plug-In . SVG Version: 6.00 Build 0)  -->
<svg version="1.1" baseProfile="basic" id="Livello_1"
	 xmlns="http://www.w3.org/2000/svg" xmlns:xlink="http://www.w3.org/1999/xlink" x="0px" y="0px" viewBox="0 0 376 46"
	 xml:space="preserve">
<style type="text/css">
	.st0{fill:#FFDA03;}
</style>
<g>
	<path class="st0" d="M375,45h-0.1c-10.1,0-17.1-9.4-23.3-17.6c-4.6-6.1-9.8-13-14.1-13c-4.1,0-8.9,6.7-13.1,12.6
		c-6.1,8.5-13,18.1-23.7,18.1h-0.4c-10.1,0-17.1-9.4-23.3-17.6c-4.6-6.1-9.8-13-14.1-13c-4.1,0-8.9,6.7-13.1,12.6
		c-6.1,8.5-13,18.1-23.7,18.1h-0.1c-10.1,0-17.1-9.4-23.3-17.6c-4.6-6.1-9.8-13-14.1-13c-4.1,0-8.9,6.7-13.1,12.6
		c-6.1,8.5-13,18.1-23.7,18.1h-0.4c-10.1,0-17.1-9.4-23.3-17.6c-4.6-6.1-9.8-13-14.1-13c-4.1,0-8.9,6.7-13.1,12.6
		C94.5,35.4,87.6,45,76.9,45h-0.1c-10.1,0-17.1-9.4-23.3-17.6c-4.6-6.1-9.8-13-14.1-13c-4.1,0-8.9,6.7-13.1,12.6
		C20.2,35.4,13.3,45,2.5,45V33.1c4.6,0,9.4-6.7,14.1-13.1c5.9-8.2,12.6-17.5,22.8-17.5c10.2,0,17.3,9.4,23.6,17.8
		c4.5,6,9.7,12.9,13.8,12.9h0.1c4.6,0,9.4-6.7,14.1-13.1c5.9-8.2,12.6-17.5,22.8-17.5c10.2,0,17.3,9.4,23.6,17.8
		c4.5,6,9.7,12.9,13.8,12.9h0.4c4.6,0,9.4-6.7,14.1-13.1c5.9-8.2,12.6-17.5,22.8-17.5c10.2,0,17.3,9.4,23.6,17.8
		c4.5,6,9.7,12.9,13.8,12.9h0.1c4.6,0,9.4-6.7,14.1-13.1c5.9-8.2,12.6-17.5,22.8-17.5c10.2,0,17.3,9.4,23.6,17.8
		c4.5,6,9.7,12.9,13.8,12.9h0.4c4.6,0,9.4-6.7,14.1-13.1c5.9-8.2,12.6-17.5,22.8-17.5c10.2,0,17.3,9.4,23.6,17.8
		c4.5,6,9.7,12.9,13.8,12.9h0.1V45z"/>
</g>
</svg>
