<svg xmlns="http://www.w3.org/2000/svg" xmlns:xlink="http://www.w3.org/1999/xlink" id="Livello_1" x="0" y="0" baseProfile="basic" version="1.1" viewBox="0 0 200 200" xml:space="preserve"><style type="text/css">.st0{fill:#ffda03}.st1{fill:#fff}</style><path d="M174.2,27.3c-14.9-6.3-32.9-1.2-45.3,9.2c-10.2,8.5-17.3,19.9-23,32c-10.3-20.5-41.1-38-63.6-31.2	C27.5,41.8,14.3,52,7.3,65.8c-7,13.8-7.9,37,2.9,53.1c15.3,22.7,44.1,30,68.6,42.1c16.9,8.3,31.9,20.5,43.4,35.4	c1-15.2,5.9-28.5,16.1-39.2c12.4-13,24.5-24.4,36.4-37.9c11.9-13.4,21.8-29.6,23.3-47.5C199.5,53.8,190.8,34.3,174.2,27.3z" class="st0"/><path d="M97.8,120.9c5.6-0.1,11.1-0.5,16.7-1.1l33.7-3.2c0,0,17.3-1.8,15.3-17.4c-2.1-15.6-17-22.1-33.3-21	c-16.4,1.1-77.9-1.7-87.7,8.3c-7.9,8.1-8.6,28,3.6,37.6C57.3,133.3,75.1,121.5,97.8,120.9z" class="st1"/></svg>