<?xml version="1.0" encoding="UTF-8"?>
<svg width="37px" height="41px" viewBox="0 0 37 41" version="1.1" xmlns="http://www.w3.org/2000/svg" xmlns:xlink="http://www.w3.org/1999/xlink">
    <title>New Tab</title>
    <defs>
        <filter id="filter-1">
            <feColorMatrix in="SourceGraphic" type="matrix" values="0 0 0 0 1.000000 0 0 0 0 0.854902 0 0 0 0 0.011765 0 0 0 0.820000 0"></feColorMatrix>
        </filter>
        <filter id="filter-2">
            <feColorMatrix in="SourceGraphic" type="matrix" values="0 0 0 0 0.129412 0 0 0 0 0.168627 0 0 0 0 0.211765 0 0 0 1.000000 0"></feColorMatrix>
        </filter>
    </defs>
    <g id="Symbols" stroke="none" stroke-width="1" fill="none" fill-rule="evenodd">
        <g id="Desktop/Card-Article" transform="translate(-747.000000, -103.000000)">
            <g id="Articolo-4" transform="translate(0.000000, -0.107143)">
                <g id="New-Tab" transform="translate(747.000000, 104.000000)">
                    <g filter="url(#filter-1)" id="export">
                        <g transform="translate(3.000000, 3.000000)">
                            <path d="M32.7341658,0 L23.5782686,0 C22.8791309,0 22.3125,0.616627729 22.3125,1.3775255 C22.3125,2.13835189 22.8791309,2.75497962 23.5782686,2.75497962 L31.4683971,2.75497962 L31.4683971,11.3412959 C31.4683971,12.1021223 32.035028,12.71875 32.7341658,12.71875 C33.4333035,12.71875 34,12.1021223 34,11.3412959 L34,1.3775255 C34,0.616627729 33.4333691,0 32.7341658,0 Z" id="Path" fill="#000000" fill-rule="nonzero"></path>
                            <path d="M33.6172142,0.416562629 C33.1069009,-0.13885421 32.2803667,-0.13885421 31.7700534,0.416562629 L13.1327858,20.6983021 C12.6224047,21.2532033 12.6224047,22.1535547 13.1327858,22.7084558 C13.3875362,22.9861274 13.7219681,23.125 14.0564,23.125 C14.3903581,23.125 14.72479,22.9861274 14.9800143,22.7084558 L33.6172142,2.42671629 C34.1275953,1.87181516 34.1275953,0.971463761 33.6172142,0.416562629 Z" id="Path" fill="#000000" fill-rule="nonzero"></path>
                            <path d="M28.4640092,17.2671419 C27.7537019,17.2671419 27.1779518,17.893621 27.1779518,18.6666024 L27.1779518,34.2010063 L2.57204822,34.2010063 L2.57204822,7.42399365 L16.8469059,7.42399365 C17.5572132,7.42399365 18.1328966,6.79751457 18.1328966,6.02453309 C18.1328966,5.25155161 17.5572132,4.625 16.8469059,4.625 L1.28605743,4.625 C0.57568348,4.625 0,5.25147908 0,6.02453309 L0,35.6005394 C0,36.3735209 0.57568348,37 1.28605743,37 L28.4640092,37 C29.1747164,37 29.75,36.3735209 29.75,35.6004669 L29.75,18.6666024 C29.75,17.893621 29.1743165,17.2671419 28.4640092,17.2671419 Z" id="Path" fill="#000000" fill-rule="nonzero"></path>
                        </g>
                    </g>
                    <g filter="url(#filter-2)" id="export">
                        <g>
                            <path d="M32.7341658,0 L23.5782686,0 C22.8791309,0 22.3125,0.616627729 22.3125,1.3775255 C22.3125,2.13835189 22.8791309,2.75497962 23.5782686,2.75497962 L31.4683971,2.75497962 L31.4683971,11.3412959 C31.4683971,12.1021223 32.035028,12.71875 32.7341658,12.71875 C33.4333035,12.71875 34,12.1021223 34,11.3412959 L34,1.3775255 C34,0.616627729 33.4333691,0 32.7341658,0 Z" id="Path" fill="#000000" fill-rule="nonzero"></path>
                            <path d="M33.6172142,0.416562629 C33.1069009,-0.13885421 32.2803667,-0.13885421 31.7700534,0.416562629 L13.1327858,20.6983021 C12.6224047,21.2532033 12.6224047,22.1535547 13.1327858,22.7084558 C13.3875362,22.9861274 13.7219681,23.125 14.0564,23.125 C14.3903581,23.125 14.72479,22.9861274 14.9800143,22.7084558 L33.6172142,2.42671629 C34.1275953,1.87181516 34.1275953,0.971463761 33.6172142,0.416562629 Z" id="Path" fill="#000000" fill-rule="nonzero"></path>
                            <path d="M28.4640092,17.2671419 C27.7537019,17.2671419 27.1779518,17.893621 27.1779518,18.6666024 L27.1779518,34.2010063 L2.57204822,34.2010063 L2.57204822,7.42399365 L16.8469059,7.42399365 C17.5572132,7.42399365 18.1328966,6.79751457 18.1328966,6.02453309 C18.1328966,5.25155161 17.5572132,4.625 16.8469059,4.625 L1.28605743,4.625 C0.57568348,4.625 0,5.25147908 0,6.02453309 L0,35.6005394 C0,36.3735209 0.57568348,37 1.28605743,37 L28.4640092,37 C29.1747164,37 29.75,36.3735209 29.75,35.6004669 L29.75,18.6666024 C29.75,17.893621 29.1743165,17.2671419 28.4640092,17.2671419 Z" id="Path" fill="#000000" fill-rule="nonzero"></path>
                        </g>
                    </g>
                </g>
            </g>
        </g>
    </g>
</svg>