<svg xmlns="http://www.w3.org/2000/svg" xmlns:xlink="http://www.w3.org/1999/xlink" id="Livello_1" x="0" y="0" baseProfile="basic" version="1.1" viewBox="0 0 80 80" xml:space="preserve"><style type="text/css">.st0{fill:#fbda48}</style><g><path d="M46.4,25.2c-8.2-3.7-21.3,1.3-23.9,10.2c-1.5,5.3,1.2,10.8,3.3,15.5c2.6,5.9,5.7,11.6,9.3,16.9 c0.3,0.5,0.7,0.7,1.1,0.8c1.3,3,5,2.3,7,0c3.6-4.3,5.5-10.7,7.2-16C53.1,44.6,56.4,29.7,46.4,25.2z M48.9,44.8 c-0.7,3.8-2,7.5-3.4,11.1c-0.7,2-1.5,3.9-2.4,5.8c-0.3,0.7-0.7,1.5-1.1,2.2c0,0.1-2.4,3.9-2.7,3.1c-0.2-0.8-0.8-1.2-1.4-1.2 c-4.3-6.6-8.1-13.6-10.9-21c-1.6-4.2-2.3-8.5,1-12.1c2.8-3.1,7.3-4.6,11.4-4.9C49.7,26.8,50.4,37.1,48.9,44.8z" class="st0"/><path d="M40.2,32.2c-0.6-0.3-1.1-0.3-1.6-0.1c-0.4-0.4-0.9-0.5-1.6-0.3c-3.4,1.2-6.5,4-6.8,7.9 c-0.3,3.7,2.4,7.6,6.2,8.1c4,0.5,8.1-2.9,9.4-6.5C47.2,37,43.4,34,40.2,32.2z M42.6,39.9c-0.4,2.2-3.5,4.6-5.6,4.4 c-2.2-0.3-3.5-2.7-3.1-4.7c0.4-2.1,2.2-3.6,4.1-4.3c0.1,0,0.2-0.1,0.3-0.1c0.1,0,0.1,0.1,0.2,0.1C40,36.1,43,37.6,42.6,39.9z" class="st0"/><path d="M56.7,26.9c4.3-1.5,8.2-3.7,11.7-6.7c1.7-1.5-0.8-3.9-2.5-2.5c-3,2.5-6.4,4.5-10.2,5.8 C53.7,24.3,54.6,27.7,56.7,26.9z" class="st0"/><path d="M67.4,4c1.7-1.5-0.8-4-2.5-2.5c-6,5.6-10.8,12.2-14.4,19.5c-1,2,2.1,3.8,3,1.8C57,15.7,61.6,9.4,67.4,4z" class="st0"/><path d="M73.3,33.6C68,32,62.5,31.1,57,30.7c-2.3-0.1-2.3,3.4,0,3.5c5.2,0.3,10.3,1.3,15.4,2.8 C74.5,37.7,75.4,34.3,73.3,33.6z" class="st0"/></g></svg>