<svg xmlns="http://www.w3.org/2000/svg" xmlns:xlink="http://www.w3.org/1999/xlink" id="Livello_1" x="0" y="0" baseProfile="basic" version="1.1" viewBox="0 0 80 80" xml:space="preserve"><style type="text/css">.st0{fill:#fbda48}</style><path d="M75.8,22.7c0.1-0.8-0.2-1.3-0.6-1.7c1.8-1.2,0.4-4.8-2.2-4.3c-0.6-0.1-1.2-0.1-1.7,0.3	C49.9,20.3,28.3,21.6,6.7,21c-3.2-0.1-3.1,4.8,0,4.9c0,0,0,0,0.1,0c0.5,12.2-0.3,24.2-2.7,36.2c-0.3,1.6,0.7,3.1,2.4,3.1	c19.6,0.2,39.2,0,58.7-0.9c1.5-0.1,3.1,0,4.4-0.4c2.1,1.9,5.2-1.4,3.2-3.7c-0.1-0.1-0.2-0.2-0.3-0.3c0.6-2.7,0.3-6,0.6-8.4	C74,41.9,74.9,32.3,75.8,22.7z M42.5,45.1c-8.2-7.3-17.6-12.8-26.6-19c16.5,0,33-1.1,49.3-3.4C57.7,30.1,50.1,37.6,42.5,45.1z M11.8,29.2c6.1,4.3,12.5,8.1,18.6,12.5c-6.9,5.5-13.8,11-20.6,16.5C11.3,48.5,12,38.9,11.8,29.2z M55.5,59.8	c-2.6,0.1-5.2,0.1-7.9,0.2c0.9-0.6,1.8-1.2,2.7-1.9c1.8-1.5-0.8-4.1-2.6-2.6c-2.2,1.8-4.8,3.1-7.2,4.6c-0.8,0-1.7,0-2.5,0	c1.7-1.1,3.4-2.1,5.1-3.2c1.9-1.3,0.1-4.5-1.9-3.2c-3.3,2.2-6.6,3.9-9.6,6.5c-5.7,0.1-11.3,0.1-17,0c6.5-5.2,12.9-10.3,19.4-15.5	c0.1-0.1,0.2-0.2,0.3-0.3c2,1.5,3.9,3.1,5.7,4.8c1,1,2.3,0.8,3.2,0.1c0.7,0.2,1.6,0.1,2.3-0.6c1.4-1.4,2.8-2.7,4.2-4.1c0,0,0,0,0,0	c5.9,4.2,11,9.2,15.8,14.5C62.6,60.3,57.5,59.7,55.5,59.8z M53.3,41.4c5.8-5.8,11.7-11.5,17.5-17.3c-0.7,7.6-1.4,15.1-2.1,22.7	c-0.2,1.9-0.3,3.7-0.5,5.6c0,0.5,0,1.5-0.1,2.5C63.5,49.9,58.7,45.4,53.3,41.4z" class="st0"/></svg>